<svg width="230" height="100" viewBox="0 0 230 100" fill="none" xmlns="http://www.w3.org/2000/svg">
<circle cx="33" cy="37" r="15" fill="#74A4BC"/>
<path fill-rule="evenodd" clip-rule="evenodd" d="M135.5 80C141.851 80 147 74.8513 147 68.5C147 62.1487 141.851 57 135.5 57C129.149 57 124 62.1487 124 68.5C124 74.8513 129.149 80 135.5 80ZM134.169 72.8341L139.919 69.5144C140.7 69.0635 140.7 67.9365 139.919 67.4856L134.169 64.1659C133.388 63.715 132.412 64.2786 132.412 65.1802L132.412 71.8198C132.412 72.7214 133.388 73.285 134.169 72.8341Z" fill="#DE6B48"/>
<path d="M28.88 48V44.22H35.9V48H28.88ZM24.8 48V26.4H29.78V48H24.8ZM42.0859 48V44.22H49.7059V48H42.0859ZM42.0859 39.09V35.31H47.9059V39.09H42.0859ZM38.3059 26.4H43.2859V48H38.3059V26.4ZM42.3859 26.4H49.4059V30.18H42.3859V26.4ZM61.2099 42.78C61.2099 42.12 60.9899 41.56 60.5499 41.1C60.1099 40.64 59.5399 40.21 58.8399 39.81C58.1599 39.39 57.4299 38.96 56.6499 38.52C55.8699 38.06 55.1299 37.53 54.4299 36.93C53.7499 36.33 53.1899 35.6 52.7499 34.74C52.3099 33.88 52.0899 32.83 52.0899 31.59H57.0699C57.0699 32.23 57.2899 32.79 57.7299 33.27C58.1699 33.73 58.7299 34.17 59.4099 34.59C60.1099 34.99 60.8499 35.42 61.6299 35.88C62.4099 36.32 63.1399 36.84 63.8199 37.44C64.5199 38.04 65.0899 38.77 65.5299 39.63C65.9699 40.49 66.1899 41.54 66.1899 42.78H61.2099ZM52.0899 31.62C52.0899 30.52 52.3999 29.55 53.0199 28.71C53.6399 27.85 54.4799 27.17 55.5399 26.67C56.5999 26.17 57.7999 25.92 59.1399 25.92V29.7C58.4999 29.7 57.9899 29.87 57.6099 30.21C57.2499 30.55 57.0699 31.02 57.0699 31.62H52.0899ZM66.1899 42.78C66.1899 43.88 65.8799 44.86 65.2599 45.72C64.6399 46.56 63.7999 47.23 62.7399 47.73C61.6799 48.23 60.4799 48.48 59.1399 48.48V44.7C59.7799 44.7 60.2799 44.53 60.6399 44.19C61.0199 43.85 61.2099 43.38 61.2099 42.78H66.1899ZM61.0599 32.07C60.9599 31.31 60.7399 30.73 60.3999 30.33C60.0799 29.91 59.6599 29.7 59.1399 29.7V25.92C60.2799 25.92 61.2799 26.13 62.1399 26.55C63.0199 26.97 63.7399 27.58 64.2999 28.38C64.8599 29.18 65.2299 30.15 65.4099 31.29L61.0599 32.07ZM56.4399 41.13C56.4999 42.25 56.7699 43.13 57.2499 43.77C57.7299 44.39 58.3599 44.7 59.1399 44.7V48.48C57.0799 48.48 55.4199 47.9 54.1599 46.74C52.8999 45.58 52.1699 43.97 51.9699 41.91L56.4399 41.13ZM79.8671 48L85.2371 26.4H90.0371L84.6671 48H79.8671ZM79.8071 48L74.4371 26.4H79.2371L84.6071 48H79.8071ZM98.8595 25.29H95.6795L97.6295 20.85H101.769L98.8595 25.29ZM96.5195 48V44.22H104.139V48H96.5195ZM96.5195 39.09V35.31H102.339V39.09H96.5195ZM92.7395 26.4H97.7195V48H92.7395V26.4ZM96.8195 26.4H103.839V30.18H96.8195V26.4ZM105.368 30.18V26.4H120.068V30.18H105.368ZM110.228 48V26.4H115.208V48H110.228ZM128.596 25.29H125.416L127.366 20.85H131.506L128.596 25.29ZM126.256 48V44.22H133.876V48H126.256ZM126.256 39.09V35.31H132.076V39.09H126.256ZM122.476 26.4H127.456V48H122.476V26.4ZM126.556 26.4H133.576V30.18H126.556V26.4ZM145.77 48L142.05 38.07H146.85L150.57 48H145.77ZM141.57 40.17V36.39H143.07V40.17H141.57ZM141.57 30.18V26.4H143.07V30.18H141.57ZM145.11 33.9V32.67H150.09V33.9H145.11ZM150.09 32.7H145.11C145.11 31.9 144.92 31.28 144.54 30.84C144.18 30.4 143.68 30.18 143.04 30.18V26.4C144.38 26.4 145.58 26.68 146.64 27.24C147.7 27.78 148.54 28.53 149.16 29.49C149.78 30.43 150.09 31.5 150.09 32.7ZM150.09 33.87C150.09 35.07 149.78 36.15 149.16 37.11C148.54 38.05 147.7 38.8 146.64 39.36C145.58 39.9 144.38 40.17 143.04 40.17V36.39C143.68 36.39 144.18 36.17 144.54 35.73C144.92 35.29 145.11 34.67 145.11 33.87H150.09ZM136.89 48V26.4H141.87V48H136.89ZM156.664 44.64V40.86H164.344V44.64H156.664ZM162.244 26.4L156.874 48H152.074L157.444 26.4H162.244ZM162.304 26.4L167.674 48H162.874L157.504 26.4H162.304ZM179.15 48L170.6 26.4H174.8L183.35 48H179.15ZM169.79 48V26.4H174.77V48H169.79ZM180.32 48V26.4H185.3V48H180.32ZM197.382 42.78C197.382 42.12 197.162 41.56 196.722 41.1C196.282 40.64 195.712 40.21 195.012 39.81C194.332 39.39 193.602 38.96 192.822 38.52C192.042 38.06 191.302 37.53 190.602 36.93C189.922 36.33 189.362 35.6 188.922 34.74C188.482 33.88 188.262 32.83 188.262 31.59H193.242C193.242 32.23 193.462 32.79 193.902 33.27C194.342 33.73 194.902 34.17 195.582 34.59C196.282 34.99 197.022 35.42 197.802 35.88C198.582 36.32 199.312 36.84 199.992 37.44C200.692 38.04 201.262 38.77 201.702 39.63C202.142 40.49 202.362 41.54 202.362 42.78H197.382ZM188.262 31.62C188.262 30.52 188.572 29.55 189.192 28.71C189.812 27.85 190.652 27.17 191.712 26.67C192.772 26.17 193.972 25.92 195.312 25.92V29.7C194.672 29.7 194.162 29.87 193.782 30.21C193.422 30.55 193.242 31.02 193.242 31.62H188.262ZM202.362 42.78C202.362 43.88 202.052 44.86 201.432 45.72C200.812 46.56 199.972 47.23 198.912 47.73C197.852 48.23 196.652 48.48 195.312 48.48V44.7C195.952 44.7 196.452 44.53 196.812 44.19C197.192 43.85 197.382 43.38 197.382 42.78H202.362ZM197.232 32.07C197.132 31.31 196.912 30.73 196.572 30.33C196.252 29.91 195.832 29.7 195.312 29.7V25.92C196.452 25.92 197.452 26.13 198.312 26.55C199.192 26.97 199.912 27.58 200.472 28.38C201.032 29.18 201.402 30.15 201.582 31.29L197.232 32.07ZM192.612 41.13C192.672 42.25 192.942 43.13 193.422 43.77C193.902 44.39 194.532 44.7 195.312 44.7V48.48C193.252 48.48 191.592 47.9 190.332 46.74C189.072 45.58 188.342 43.97 188.142 41.91L192.612 41.13ZM33.32 72.76V63.67H38.3V72.76H33.32ZM29.18 79V75.22H31.25V79H29.18ZM29.18 61.18V57.4H31.25V61.18H29.18ZM29.18 61.18V57.4H31.25V61.18H29.18ZM38.3 63.7H33.32C33.32 62.9 33.13 62.28 32.75 61.84C32.39 61.4 31.89 61.18 31.25 61.18V57.4C32.59 57.4 33.79 57.68 34.85 58.24C35.91 58.78 36.75 59.53 37.37 60.49C37.99 61.43 38.3 62.5 38.3 63.7ZM38.3 72.7C38.3 73.9 37.99 74.98 37.37 75.94C36.75 76.88 35.91 77.63 34.85 78.19C33.79 78.73 32.59 79 31.25 79V75.22C31.89 75.22 32.39 75 32.75 74.56C33.13 74.12 33.32 73.5 33.32 72.7H38.3ZM24.8 79V57.4H29.78V79H24.8ZM50.8229 73.21V57.4H55.8029V73.21H50.8229ZM41.7629 73.21V57.4H46.7429V73.21H41.7629ZM55.8029 73.18C55.8029 74.38 55.4929 75.46 54.8729 76.42C54.2529 77.36 53.4129 78.11 52.3529 78.67C51.2929 79.21 50.0929 79.48 48.7529 79.48V75.7C49.3929 75.7 49.8929 75.48 50.2529 75.04C50.6329 74.6 50.8229 73.98 50.8229 73.18H55.8029ZM41.7629 73.18H46.7429C46.7429 73.98 46.9229 74.6 47.2829 75.04C47.6629 75.48 48.1729 75.7 48.8129 75.7V79.48C47.4729 79.48 46.2729 79.21 45.2129 78.67C44.1529 78.11 43.3129 77.36 42.6929 76.42C42.0729 75.46 41.7629 74.38 41.7629 73.18ZM79.3784 79L75.2984 57.4H79.1984L83.5784 79H79.3784ZM69.2984 79L65.0984 57.4H69.8984L74.0984 79H69.2984ZM70.9184 79L75.2984 57.4H79.1984L75.1184 79H70.9184ZM80.3984 79L84.5984 57.4H89.3984L85.1984 79H80.3984ZM95.582 79V75.22H103.202V79H95.582ZM95.582 70.09V66.31H101.402V70.09H95.582ZM91.802 57.4H96.782V79H91.802V57.4ZM95.882 57.4H102.902V61.18H95.882V57.4ZM112.366 69.07V66.19C113.006 66.19 113.506 65.97 113.866 65.53C114.246 65.09 114.436 64.47 114.436 63.67H119.416C119.416 64.69 119.106 65.61 118.486 66.43C117.866 67.25 117.026 67.9 115.966 68.38C114.906 68.84 113.706 69.07 112.366 69.07ZM110.896 79V75.22H112.696V79H110.896ZM110.896 69.67V66.19H112.666V69.67H110.896ZM114.736 72.73V72.16H119.716V72.73H114.736ZM114.736 72.19C114.736 71.39 114.546 70.77 114.166 70.33C113.806 69.89 113.306 69.67 112.666 69.67V66.79C114.006 66.79 115.206 67.03 116.266 67.51C117.326 67.97 118.166 68.61 118.786 69.43C119.406 70.23 119.716 71.15 119.716 72.19H114.736ZM110.896 61.18V57.4H112.396V61.18H110.896ZM119.416 63.7H114.436C114.436 62.9 114.246 62.28 113.866 61.84C113.506 61.4 113.006 61.18 112.366 61.18V57.4C113.706 57.4 114.906 57.68 115.966 58.24C117.026 58.78 117.866 59.53 118.486 60.49C119.106 61.43 119.416 62.5 119.416 63.7ZM119.716 72.7C119.716 73.9 119.406 74.98 118.786 75.94C118.166 76.88 117.326 77.63 116.266 78.19C115.206 78.73 114.006 79 112.666 79V75.22C113.306 75.22 113.806 75 114.166 74.56C114.546 74.12 114.736 73.5 114.736 72.7H119.716ZM106.216 79V57.4H111.196V79H106.216Z" fill="#2E282A"/>
</svg>
