<svg width="185" height="60" viewBox="0 0 185 60" fill="none" xmlns="http://www.w3.org/2000/svg">
<g clip-path="url(#clip0_41_3638)">
<circle cx="15" cy="17" r="15" fill="#74A4BC"/>
<path fill-rule="evenodd" clip-rule="evenodd" d="M117.5 60C123.851 60 129 54.8513 129 48.5C129 42.1487 123.851 37 117.5 37C111.149 37 106 42.1487 106 48.5C106 54.8513 111.149 60 117.5 60ZM116.169 52.8341L121.919 49.5144C122.7 49.0635 122.7 47.9365 121.919 47.4856L116.169 44.1659C115.388 43.715 114.412 44.2786 114.412 45.1802L114.412 51.8198C114.412 52.7214 115.388 53.285 116.169 52.8341Z" fill="#DE6B48"/>
<path d="M10.88 28V24.22H17.9V28H10.88ZM6.8 28V6.4H11.78V28H6.8ZM24.0859 28V24.22H31.7059V28H24.0859ZM24.0859 19.09V15.31H29.9059V19.09H24.0859ZM20.3059 6.4H25.2859V28H20.3059V6.4ZM24.3859 6.4H31.4059V10.18H24.3859V6.4ZM43.2099 22.78C43.2099 22.12 42.9899 21.56 42.5499 21.1C42.1099 20.64 41.5399 20.21 40.8399 19.81C40.1599 19.39 39.4299 18.96 38.6499 18.52C37.8699 18.06 37.1299 17.53 36.4299 16.93C35.7499 16.33 35.1899 15.6 34.7499 14.74C34.3099 13.88 34.0899 12.83 34.0899 11.59H39.0699C39.0699 12.23 39.2899 12.79 39.7299 13.27C40.1699 13.73 40.7299 14.17 41.4099 14.59C42.1099 14.99 42.8499 15.42 43.6299 15.88C44.4099 16.32 45.1399 16.84 45.8199 17.44C46.5199 18.04 47.0899 18.77 47.5299 19.63C47.9699 20.49 48.1899 21.54 48.1899 22.78H43.2099ZM34.0899 11.62C34.0899 10.52 34.3999 9.55 35.0199 8.71C35.6399 7.85 36.4799 7.17 37.5399 6.67C38.5999 6.17 39.7999 5.92 41.1399 5.92V9.7C40.4999 9.7 39.9899 9.87 39.6099 10.21C39.2499 10.55 39.0699 11.02 39.0699 11.62H34.0899ZM48.1899 22.78C48.1899 23.88 47.8799 24.86 47.2599 25.72C46.6399 26.56 45.7999 27.23 44.7399 27.73C43.6799 28.23 42.4799 28.48 41.1399 28.48V24.7C41.7799 24.7 42.2799 24.53 42.6399 24.19C43.0199 23.85 43.2099 23.38 43.2099 22.78H48.1899ZM43.0599 12.07C42.9599 11.31 42.7399 10.73 42.3999 10.33C42.0799 9.91 41.6599 9.7 41.1399 9.7V5.92C42.2799 5.92 43.2799 6.13 44.1399 6.55C45.0199 6.97 45.7399 7.58 46.2999 8.38C46.8599 9.18 47.2299 10.15 47.4099 11.29L43.0599 12.07ZM38.4399 21.13C38.4999 22.25 38.7699 23.13 39.2499 23.77C39.7299 24.39 40.3599 24.7 41.1399 24.7V28.48C39.0799 28.48 37.4199 27.9 36.1599 26.74C34.8999 25.58 34.1699 23.97 33.9699 21.91L38.4399 21.13ZM61.8671 28L67.2371 6.4H72.0371L66.6671 28H61.8671ZM61.8071 28L56.4371 6.4H61.2371L66.6071 28H61.8071ZM80.8595 5.29H77.6795L79.6295 0.849999H83.7695L80.8595 5.29ZM78.5195 28V24.22H86.1395V28H78.5195ZM78.5195 19.09V15.31H84.3395V19.09H78.5195ZM74.7395 6.4H79.7195V28H74.7395V6.4ZM78.8195 6.4H85.8395V10.18H78.8195V6.4ZM87.3676 10.18V6.4H102.068V10.18H87.3676ZM92.2276 28V6.4H97.2076V28H92.2276ZM110.596 5.29H107.416L109.366 0.849999H113.506L110.596 5.29ZM108.256 28V24.22H115.876V28H108.256ZM108.256 19.09V15.31H114.076V19.09H108.256ZM104.476 6.4H109.456V28H104.476V6.4ZM108.556 6.4H115.576V10.18H108.556V6.4ZM127.77 28L124.05 18.07H128.85L132.57 28H127.77ZM123.57 20.17V16.39H125.07V20.17H123.57ZM123.57 10.18V6.4H125.07V10.18H123.57ZM127.11 13.9V12.67H132.09V13.9H127.11ZM132.09 12.7H127.11C127.11 11.9 126.92 11.28 126.54 10.84C126.18 10.4 125.68 10.18 125.04 10.18V6.4C126.38 6.4 127.58 6.68 128.64 7.24C129.7 7.78 130.54 8.53 131.16 9.49C131.78 10.43 132.09 11.5 132.09 12.7ZM132.09 13.87C132.09 15.07 131.78 16.15 131.16 17.11C130.54 18.05 129.7 18.8 128.64 19.36C127.58 19.9 126.38 20.17 125.04 20.17V16.39C125.68 16.39 126.18 16.17 126.54 15.73C126.92 15.29 127.11 14.67 127.11 13.87H132.09ZM118.89 28V6.4H123.87V28H118.89ZM138.664 24.64V20.86H146.344V24.64H138.664ZM144.244 6.4L138.874 28H134.074L139.444 6.4H144.244ZM144.304 6.4L149.674 28H144.874L139.504 6.4H144.304ZM161.15 28L152.6 6.4H156.8L165.35 28H161.15ZM151.79 28V6.4H156.77V28H151.79ZM162.32 28V6.4H167.3V28H162.32ZM179.382 22.78C179.382 22.12 179.162 21.56 178.722 21.1C178.282 20.64 177.712 20.21 177.012 19.81C176.332 19.39 175.602 18.96 174.822 18.52C174.042 18.06 173.302 17.53 172.602 16.93C171.922 16.33 171.362 15.6 170.922 14.74C170.482 13.88 170.262 12.83 170.262 11.59H175.242C175.242 12.23 175.462 12.79 175.902 13.27C176.342 13.73 176.902 14.17 177.582 14.59C178.282 14.99 179.022 15.42 179.802 15.88C180.582 16.32 181.312 16.84 181.992 17.44C182.692 18.04 183.262 18.77 183.702 19.63C184.142 20.49 184.362 21.54 184.362 22.78H179.382ZM170.262 11.62C170.262 10.52 170.572 9.55 171.192 8.71C171.812 7.85 172.652 7.17 173.712 6.67C174.772 6.17 175.972 5.92 177.312 5.92V9.7C176.672 9.7 176.162 9.87 175.782 10.21C175.422 10.55 175.242 11.02 175.242 11.62H170.262ZM184.362 22.78C184.362 23.88 184.052 24.86 183.432 25.72C182.812 26.56 181.972 27.23 180.912 27.73C179.852 28.23 178.652 28.48 177.312 28.48V24.7C177.952 24.7 178.452 24.53 178.812 24.19C179.192 23.85 179.382 23.38 179.382 22.78H184.362ZM179.232 12.07C179.132 11.31 178.912 10.73 178.572 10.33C178.252 9.91 177.832 9.7 177.312 9.7V5.92C178.452 5.92 179.452 6.13 180.312 6.55C181.192 6.97 181.912 7.58 182.472 8.38C183.032 9.18 183.402 10.15 183.582 11.29L179.232 12.07ZM174.612 21.13C174.672 22.25 174.942 23.13 175.422 23.77C175.902 24.39 176.532 24.7 177.312 24.7V28.48C175.252 28.48 173.592 27.9 172.332 26.74C171.072 25.58 170.342 23.97 170.142 21.91L174.612 21.13ZM15.32 52.76V43.67H20.3V52.76H15.32ZM11.18 59V55.22H13.25V59H11.18ZM11.18 41.18V37.4H13.25V41.18H11.18ZM11.18 41.18V37.4H13.25V41.18H11.18ZM20.3 43.7H15.32C15.32 42.9 15.13 42.28 14.75 41.84C14.39 41.4 13.89 41.18 13.25 41.18V37.4C14.59 37.4 15.79 37.68 16.85 38.24C17.91 38.78 18.75 39.53 19.37 40.49C19.99 41.43 20.3 42.5 20.3 43.7ZM20.3 52.7C20.3 53.9 19.99 54.98 19.37 55.94C18.75 56.88 17.91 57.63 16.85 58.19C15.79 58.73 14.59 59 13.25 59V55.22C13.89 55.22 14.39 55 14.75 54.56C15.13 54.12 15.32 53.5 15.32 52.7H20.3ZM6.8 59V37.4H11.78V59H6.8ZM32.8229 53.21V37.4H37.8029V53.21H32.8229ZM23.7629 53.21V37.4H28.7429V53.21H23.7629ZM37.8029 53.18C37.8029 54.38 37.4929 55.46 36.8729 56.42C36.2529 57.36 35.4129 58.11 34.3529 58.67C33.2929 59.21 32.0929 59.48 30.7529 59.48V55.7C31.3929 55.7 31.8929 55.48 32.2529 55.04C32.6329 54.6 32.8229 53.98 32.8229 53.18H37.8029ZM23.7629 53.18H28.7429C28.7429 53.98 28.9229 54.6 29.2829 55.04C29.6629 55.48 30.1729 55.7 30.8129 55.7V59.48C29.4729 59.48 28.2729 59.21 27.2129 58.67C26.1529 58.11 25.3129 57.36 24.6929 56.42C24.0729 55.46 23.7629 54.38 23.7629 53.18ZM61.3784 59L57.2984 37.4H61.1984L65.5784 59H61.3784ZM51.2984 59L47.0984 37.4H51.8984L56.0984 59H51.2984ZM52.9184 59L57.2984 37.4H61.1984L57.1184 59H52.9184ZM62.3984 59L66.5984 37.4H71.3984L67.1984 59H62.3984ZM77.582 59V55.22H85.202V59H77.582ZM77.582 50.09V46.31H83.402V50.09H77.582ZM73.802 37.4H78.782V59H73.802V37.4ZM77.882 37.4H84.902V41.18H77.882V37.4ZM94.366 49.07V46.19C95.006 46.19 95.506 45.97 95.866 45.53C96.246 45.09 96.436 44.47 96.436 43.67H101.416C101.416 44.69 101.106 45.61 100.486 46.43C99.866 47.25 99.026 47.9 97.966 48.38C96.906 48.84 95.706 49.07 94.366 49.07ZM92.896 59V55.22H94.696V59H92.896ZM92.896 49.67V46.19H94.666V49.67H92.896ZM96.736 52.73V52.16H101.716V52.73H96.736ZM96.736 52.19C96.736 51.39 96.546 50.77 96.166 50.33C95.806 49.89 95.306 49.67 94.666 49.67V46.79C96.006 46.79 97.206 47.03 98.266 47.51C99.326 47.97 100.166 48.61 100.786 49.43C101.406 50.23 101.716 51.15 101.716 52.19H96.736ZM92.896 41.18V37.4H94.396V41.18H92.896ZM101.416 43.7H96.436C96.436 42.9 96.246 42.28 95.866 41.84C95.506 41.4 95.006 41.18 94.366 41.18V37.4C95.706 37.4 96.906 37.68 97.966 38.24C99.026 38.78 99.866 39.53 100.486 40.49C101.106 41.43 101.416 42.5 101.416 43.7ZM101.716 52.7C101.716 53.9 101.406 54.98 100.786 55.94C100.166 56.88 99.326 57.63 98.266 58.19C97.206 58.73 96.006 59 94.666 59V55.22C95.306 55.22 95.806 55 96.166 54.56C96.546 54.12 96.736 53.5 96.736 52.7H101.716ZM88.216 59V37.4H93.196V59H88.216Z" fill="#2E282A"/>
</g>
<defs>
<clipPath id="clip0_41_3638">
<rect width="185" height="60" fill="white"/>
</clipPath>
</defs>
</svg>
